<svg version="1.1" xmlns="http://www.w3.org/2000/svg" xmlns:xlink="http://www.w3.org/1999/xlink" 
	xml:space="preserve" id="pub1" viewBox="0 0 400 505">
  <title>Fox and Hounds pub</title>

  <style>
    .stroke-dark {
      fill: none;
      stroke: #607d8b;
      stroke-width: 5;
    }
    .stroke-white {
      fill: none;
      stroke: #fff;
      stroke-width: 5;
    }
    .fill-white {
      fill: #fff;
    }
    
    .flower-dark {
      fill: #37474f;
      opacity: 0.75;
      stroke: hsl(41, 100%, 72%);
      stroke-width: 3.5;
    }
    .flower-med {
      fill: #37474f;
      opacity: 0.8;
      stroke: #f50057;
      stroke-width: 3;
    }
    .flower-light {
      fill: #37474f;
      opacity: 0.85;
      stroke: #ff80ab;
      stroke-width: 3;
    }

    .leaves-dark {
      fill: #33691e;
      stroke: #8bc34a;
      opacity: 0.85;
      stroke-width: 3;
    }
    .leaves-light {
      fill: #ccff90;
      stroke: #33691e;
      opacity: 0.85;
      stroke-width: 3;
    }

    .chain {
      stroke-linecap: round;
      stroke-dasharray: 1px 8px;
      opacity: 0.25;
    }

    .brick-base {
      fill: #ffcc80;
    }
    .brick-detail {
      fill: #d7ccc8;
      opacity: 0.4;
    }
    .shade {
      fill: rgba(55, 71, 79, 1);
      opacity: 0.2;
    }
    .wood-light {
      fill: #37474f;
    }
    .wood-dark {
      fill: #263238;
    }
    .window-frame {
      stroke: #263238;
      stroke-width: 5;
    }
    .glass {
      fill: rgba(224, 247, 250, 0.75);
    }
    .blue-plaque {
      fill: #81d4fa;
    }
  </style>

  <g>
    <path id="base" class="brick-base stroke-dark" d="M45,50 l310,0 0,450 -310,0Z" />
    <path id="brick" class="brick-detail stroke-white" d="M48,180 l30,0 0,20 -30,0" />
    <path id="brick" class="brick-detail stroke-white" d="M65,80 l50,0 0,20 -50,0Z" />
    <path id="brick" class="brick-detail stroke-white" d="M160,125 l30,0 0,20 -30,0" />
    <path id="brick" class="brick-detail stroke-white" d="M205,200 l50,0 0,20 -50,0Z" />
    <path id="brick" class="brick-detail stroke-white" d="M352,100 l-40,0 0,20 40,0" />
    <path id="brick" class="brick-detail stroke-white" d="M352,185 l-30,0 0,20 30,0" />
    <path id="roof" class="wood-light stroke-dark" d="M35,50 l330,0 -5,40 -320,0Z" />

    <path
      id="windowpane-upper"
      class="glass stroke-white"
      d="M79,130 l81,0 0,99 -81,0Z"
    />
    <path
      id="windowframe-upper"
      class="glass stroke-white"
      d="M79,130 l0,99 27,0 0,-99 27,0 0,99 27,0 0,-33 -81,0 0,-33 81,0 0,66"
    />
    <path
      id="window-cornice"
      class="fill-white stroke-white"
      d="M75,110 l89,0 c0,0 -1,2 -3,15 l-83,0 c0,0 -2,-13 -3-15Z"
    />

    <path
      id="windowpane-upper"
      class="glass stroke-white"
      d="M240,130 l81,0 0,99 -81,0Z"
    />
    <path
      id="windowframe-upper"
      class="glass stroke-white"
      d="M240,130 l27,0 0,99 27,0 0,-99 27,0 0,66 -81,0 0,-33 81,0 0,66"
    />
    <path
      id="window-cornice"
      class="fill-white stroke-white"
      d="M236,110 l89,0 c0,0 -1,2 -3,15 l-83,0 c0,0 -2,-13 -3-15Z"
    />

    <circle id="plaque" class="blue-plaque stroke-white" cx="200" cy="170" r="20" />
    <path
      id="plaque"
      class="brick-detail stroke-white"
      d="M273,222 c20,10 20,35 0,40 c5,-20 20,-25 35,-20 c -10,10 -30,8 -35,-20Z"
      transform="scale(.7)"
    />

    <path
      id="leaves3"
      class="leaves-dark"
      d="M110,230 c0,-15 30,5 25,15 c-10,0 -20,-25 10,-35 c-10,25 -30,28 -35,20Z"
    />
    <path
      id="leaves2"
      class="leaves-dark"
      d="M52,225 c10,5 12,35 60,0 c-5,-5 -49,-10 -30,52 c30,-40 -20,-62 -30,-52Z"
    />
    <path
      id="leaves2"
      class="leaves-light"
      d="M125,218 c10,5 12,35 60,0 c-5,-5 -49,-10 -30,52 c30,-40 -20,-62 -30,-52Z"
    />
    <path
      id="leaves5"
      class="leaves-light"
      d="M180,205 c20,10 28,40 20,45 c-15,-20 5,-40 10,-30 c-10,10 -30,8 -30,-10Z"
    />
    <path
      id="leaves2"
      class="leaves-light"
      d="M205,218 c10,5 12,35 60,0 c-5,-5 -49,-10 -30,52 c30,-40 -20,-62 -30,-52Z"
    />
    <path
      id="leaves3"
      class="leaves-light"
      d="M275,237 c0,-15 30,5 25,15 c-10,0 -20,-25 10,-35 c-10,25 -30,28 -35,20Z"
    />
    <path
      id="leaves2"
      class="leaves-dark"
      d="M315,225 c10,5 12,35 60,0 c-5,-5 -49,-10 -30,52 c30,-40 -20,-62 -30,-52Z"
    />
    <path
      id="leaves5"
      class="leaves-dark"
      d="M210,219 c20,10 28,40 20,45 c-15,-20 5,-40 10,-30 c-10,10 -30,8 -30,-10Z"
    />

    <path id="panel" class="wood-dark stroke-dark" d="M75,350 l270,0 0,150 -270,0Z" />

    <path
      id="windowpane-lower"
      class="glass stroke-white"
      d="M85,365 l50,0 0,45 -50,0Z"
    />
    <path id="windowpane-lower" class="shade" d="M82,365 l53,0 0,48" />
    <path
      id="windowpane-lower"
      class="glass stroke-white"
      d="M175,365 l50,0 0,45 -50,0Z"
    />
    <path id="windowpane-lower" class="shade" d="M175,413 l0,-48 53,0" />
    <path id="windowframe-lower" class="window-frame" d="M75,390 l160,0" />
    <path id="windowframe-lower" class="window-frame" d="M100,390 l0,-35" />
    <path id="windowframe-lower" class="window-frame" d="M120,390 l0,-35" />
    <path id="windowframe-lower" class="window-frame" d="M190,390 l0,-35" />
    <path id="windowframe-lower" class="window-frame" d="M210,390 l0,-35" />

    <path
      id="windowpane-lower"
      class="glass stroke-white"
      d="M265,365 l20,0 0,70 -20,0Z"
    />
    <path
      id="windowpane-lower"
      class="glass stroke-white"
      d="M295,365 l20,0 0,70 -20,0Z"
    />
    <path
      id="windowpane-lower"
      class="shade"
      d="M265,365 l50,0 0,70 0,0Z"
    />
    <circle id="knob" class="brick-detail stroke-white" cx="267" cy="455" r="2" />

    <path
      id="panel-lower"
      class="wood-dark stroke-dark"
      d="M85,430 l50,0 0,50 -50,0Z"
    />
    <path id="panel-lower" class="shade" d="M138,430 l-53,0 0,53" />
    <path
      id="panel-lower"
      class="wood-dark stroke-dark"
      d="M175,430 l50,0 0,50 -50,0Z"
    />
    <path id="panel-lower" class="shade" d="M172,430 l53,0 0,53" />

    <path id="beam" class="wood-light stroke-dark" d="M55,330 l290,0 0,20 -290,0Z" />
    <path id="column" class="wood-light stroke-dark" d="M55,330 l20,0 0,172 -20,0Z" />
    <path id="column" class="wood-light stroke-dark" d="M145,330 l20,0 0,172 -20,0Z" />
    <path id="column" class="wood-light stroke-dark" d="M235,330 l20,0 0,172 -20,0Z" />
    <path id="column" class="wood-light stroke-dark" d="M325,330 l20,0 0,172 -20,0Z" />
    <path
      id="sign"
      class="wood-light stroke-dark"
      d="M37,280 l326,0 c 0,0 -15,25 -15,50 l-296,0 c 0,0 0,-25 -15,-50 l1,-30 324,0 1,30"
    />

    <path
      id="leaves2"
      class="leaves-light"
      d="M60,210 c10,5 12,35 60,0 c-5,-5 -49,-10 -30,52 c30,-40 -20,-62 -30,-52Z"
      transform="rotate(55 60 210)"
    />
    <path
      id="leaves1"
      class="leaves-dark"
      d="M100,215 c20,10 20,35 0,40 c5,-20 20,-25 35,-20 c -10,10 -30,8 -35,-20Z"
      transform="rotate(30 100 215)"
    />
    <path
      id="leaves5"
      class="leaves-light"
      d="M104,222 c20,10 28,40 20,45 c-15,-20 5,-40 10,-30 c-10,10 -30,8 -30,-10Z"
    />
    <path
      id="leaves1"
      class="leaves-dark"
      d="M128,220 c20,10 20,35 0,40 c5,-20 20,-25 35,-20 c -10,10 -30,8 -35,-20Z"
    />
    <path
      id="leaves2"
      class="leaves-dark"
      d="M210,235 c10,5 12,35 60,0 c-5,-5 -49,-10 -30,52 c30,-40 -20,-62 -30,-52Z"
      transform="rotate(145 215 235)"
    />
    <path
      id="leaves3"
      class="leaves-light"
      d="M197,244 c0,-15 30,5 25,15 c-10,0 -20,-25 10,-35 c-10,25 -30,28 -35,20Z"
    />
    <path
      id="leaves1"
      class="leaves-light"
      d="M242,220 c20,10 20,35 0,40 c5,-20 20,-25 35,-20 c -10,10 -30,8 -35,-20Z"
    />
    <path
      id="leaves2"
      class="leaves-dark"
      d="M245,242 c10,5 12,35 60,0 c-5,-5 -49,-10 -30,52 c30,-40 -20,-62 -30,-52Z"
      transform="rotate(-40 245 242)"
    />
    <path
      id="leaves4"
      class="leaves-dark"
      d="M32,220 c20,10 20,35 8,40 c0,-30 20,-25 25,-20 c -10,10 -30,8 -33,-20Z"
    />
    <path
      id="leaves4"
      class="leaves-light"
      d="M155,226 c20,10 20,35 8,35 c0,-30 20,-25 25,-20 c -10,10 -30,8 -33,-15Z"
    />
    <path
      id="leaves1"
      class="leaves-dark"
      d="M294,210 c20,10 20,35 0,40 c5,-20 20,-25 35,-20 c -10,10 -30,8 -35,-20Z"
    />
    <path
      id="leaves4"
      class="leaves-light"
      d="M305,226 c20,10 20,35 8,35 c0,-30 20,-25 25,-20 c -10,10 -30,8 -33,-15Z"
    />
    <path
      id="leaves5"
      class="leaves-light"
      d="M340,215 c20,10 28,40 20,45 c-15,-20 5,-40 10,-30 c-10,10 -30,8 -30,-10Z"
    />
    <circle id="flower" class="flower-light" cx="44" cy="210" r="3" />
    <circle id="flower" class="flower-dark" cx="48" cy="220" r="5" />
    <circle id="flower" class="flower-med" cx="58" cy="235" r="3" />
    <circle id="flower" class="flower-light" cx="69" cy="227" r="4" />
    <circle id="flower" class="flower-med" cx="70" cy="215" r="3" />
    <circle id="flower" class="flower-dark" cx="76" cy="218" r="3" />
    <circle id="flower" class="flower-dark" cx="81" cy="237" r="4" />
    <circle id="flower" class="flower-dark" cx="90" cy="222" r="3.5" />
    <circle id="flower" class="flower-light" cx="100" cy="230" r="5" />
    <circle id="flower" class="flower-dark" cx="120" cy="221" r="4.5" />
    <circle id="flower" class="flower-light" cx="130" cy="232" r="4" />
    <circle id="flower" class="flower-med" cx="140" cy="222" r="3" />
    <circle id="flower" class="flower-light" cx="151" cy="224" r="4.5" />
    <circle id="flower" class="flower-light" cx="157" cy="212" r="3.5" />
    <circle id="flower" class="flower-med" cx="164" cy="220" r="3.5" />
    <circle id="flower" class="flower-light" cx="171" cy="235" r="3" />
    <circle id="flower" class="flower-med" cx="179" cy="215" r="4" />
    <circle id="flower" class="flower-dark" cx="190" cy="222" r="3.5" />
    <circle id="flower" class="flower-light" cx="200" cy="230" r="3" />
    <circle id="flower" class="flower-light" cx="208" cy="238" r="3" />
    <circle id="flower" class="flower-dark" cx="220" cy="221" r="4.5" />
    <circle id="flower" class="flower-light" cx="225" cy="214" r="3" />
    <circle id="flower" class="flower-med" cx="238" cy="212" r="4" />
    <circle id="flower" class="flower-dark" cx="239" cy="237" r="4.5" />
    <circle id="flower" class="flower-light" cx="248" cy="220" r="5" />
    <circle id="flower" class="flower-light" cx="258" cy="228" r="3.5" />
    <circle id="flower" class="flower-dark" cx="263" cy="213" r="3" />
    <circle id="flower" class="flower-light" cx="270" cy="223" r="4" />
    <circle id="flower" class="flower-dark" cx="277" cy="235" r="3.5" />
    <circle id="flower" class="flower-light" cx="279" cy="215" r="4" />
    <circle id="flower" class="flower-dark" cx="290" cy="222" r="3.5" />
    <circle id="flower" class="flower-med" cx="300" cy="230" r="5" />
    <circle id="flower" class="flower-light" cx="320" cy="221" r="4.5" />
    <circle id="flower" class="flower-dark" cx="330" cy="228" r="4" />
    <circle id="flower" class="flower-med" cx="337" cy="218" r="3" />
    <circle id="flower" class="flower-dark" cx="348" cy="230" r="5" />
    <circle id="flower" class="flower-light" cx="359" cy="222" r="4" />

    {/* <!-- flower baskets --> */}
    <circle id="leaves" class="leaves-dark" cx="65" cy="380" r="22" />
    <path class="chain stroke-white" d="M45,384 l20,-50 20,50" />
    <circle id="flower" class="flower-med" cx="65" cy="358" r="4" />
    <circle id="flower" class="flower-med" cx="85" cy="385" r="3" />
    <path
      id="leaves3"
      class="leaves-light"
      d="M41,391 c0,-15 30,5 25,15 c-10,0 -20,-25 10,-35 c-10,25 -30,28 -35,20Z"
    />
    <path
      id="leaves4"
      class="leaves-dark"
      d="M62,357 c20,10 20,35 8,40 c0,-30 20,-25 25,-20 c -10,10 -30,8 -33,-20Z"
    />
    <circle id="flower" class="flower-light" cx="44" cy="384" r="3" />
    <circle id="flower" class="flower-med" cx="48" cy="370" r="5" />
    <circle id="flower" class="flower-light" cx="57" cy="382" r="3.5" />
    <circle id="flower" class="flower-dark" cx="76" cy="378" r="3" />
    <circle id="flower" class="flower-med" cx="64" cy="370" r="3.5" />
    <circle id="flower" class="flower-light" cx="79" cy="365" r="4" />

    <circle id="leaves" class="leaves-light" cx="155" cy="380" r="22" />
    <path class="chain stroke-white" d="M135,384 l20,-50 20,50" />
    <circle id="flower" class="flower-med" cx="134" cy="374" r="3" />
    <circle id="flower" class="flower-light" cx="155" cy="359" r="4" />
    <path
      id="leaves4"
      class="leaves-light"
      d="M135,368 c20,10 20,35 8,35 c0,-30 20,-25 25,-20 c -10,10 -30,8 -33,-15Z"
    />
    <path
      id="leaves5"
      class="leaves-dark"
      d="M144,355 c20,10 28,40 20,45 c-15,-20 5,-40 10,-30 c-10,10 -30,8 -30,-10Z"
    />
    <circle id="flower" class="flower-med" cx="137" cy="387" r="4.5" />
    <circle id="flower" class="flower-dark" cx="148" cy="370" r="5" />
    <circle id="flower" class="flower-light" cx="157" cy="380" r="3.5" />
    <circle id="flower" class="flower-dark" cx="165" cy="365" r="3.5" />
    <circle id="flower" class="flower-dark" cx="174" cy="382" r="4" />

    <circle id="leaves" class="leaves-dark" cx="245" cy="380" r="22" />
    <path class="chain stroke-white" d="M225,384 l20,-50 20,50" />
    <circle id="flower" class="flower-med" cx="236" cy="362" r="5" />
    <circle id="flower" class="flower-light" cx="255" cy="363" r="4" />
    <path
      id="leaves3"
      class="leaves-dark"
      d="M217,380 c0,-15 30,5 25,15 c-10,0 -20,-25 10,-35 c-10,25 -30,28 -35,20Z"
    />
    <path
      id="leaves1"
      class="leaves-light"
      d="M237,365 c20,10 20,35 0,40 c5,-20 20,-25 35,-20 c -10,10 -30,8 -35,-20Z"
    />
    <circle id="flower" class="flower-med" cx="225" cy="374" r="3" />
    <circle id="flower" class="flower-dark" cx="238" cy="382" r="4" />
    <circle id="flower" class="flower-light" cx="248" cy="370" r="5" />
    <circle id="flower" class="flower-light" cx="257" cy="382" r="3.5" />
    <circle id="flower" class="flower-med" cx="263" cy="373" r="3" />

    <circle id="leaves" class="leaves-light" cx="335" cy="380" r="22" />
    <path class="chain stroke-white" d="M315,384 l20,-50 20,50" />
    <circle id="flower" class="flower-med" cx="338" cy="370" r="2.5" />
    <circle id="flower" class="flower-dark" cx="340" cy="360" r="3" />
    <path
      id="leaves2"
      class="leaves-dark"
      d="M435,520 c10,5 12,35 60,0 c-5,-5 -49,-10 -30,52 c30,-40 -20,-62 -30,-52Z"
      transform="scale(.7)"
    />
    <circle id="flower" class="flower-light" cx="316" cy="381" r="5" />
    <path
      id="leaves3"
      class="leaves-light"
      d="M322,385 c0,-15 30,5 25,15 c-10,0 -20,-25 10,-35 c-10,25 -30,28 -35,20Z"
    />
    <circle id="flower" class="flower-dark" cx="330" cy="378" r="4" />
    <circle id="flower" class="flower-light" cx="327" cy="361" r="4.5" />
    <circle id="flower" class="flower-med" cx="344" cy="386" r="3" />
    <circle id="flower" class="flower-dark" cx="348" cy="370" r="5" />
    <circle id="flower" class="flower-light" cx="355" cy="382" r="4" />
  </g>
</svg>