<svg version="1.1" xmlns="http://www.w3.org/2000/svg" xmlns:xlink="http://www.w3.org/1999/xlink" 
	xml:space="preserve" id="pub2" viewBox="0 0 400 720">
  <title>Coach and Horses pub</title>

  <style>
    .stroke-dark {
      fill: none;
      stroke: #607d8b;
      stroke-width: 5;
    }
    .stroke-white {
      fill: none;
      stroke: #fff;
      stroke-width: 5;
    }
    .fill-white {
      fill: #fff;
    }
    
    .flower-dark {
      fill: #37474f;
      opacity: 0.75;
      stroke: hsl(41, 100%, 72%);
      stroke-width: 3.5;
    }
    .flower-med {
      fill: #37474f;
      opacity: 0.8;
      stroke: #f50057;
      stroke-width: 3;
    }
    .flower-light {
      fill: #37474f;
      opacity: 0.85;
      stroke: #ff80ab;
      stroke-width: 3;
    }

    .leaves-dark {
      fill: #33691e;
      stroke: #8bc34a;
      opacity: 0.85;
      stroke-width: 3;
    }
    .leaves-light {
      fill: #ccff90;
      stroke: #33691e;
      opacity: 0.85;
      stroke-width: 3;
    }

    .chain {
      stroke-linecap: round;
      stroke-dasharray: 1px 8px;
      opacity: 0.25;
    }
    .shade {
      fill: rgba(55, 71, 79, 1);
      opacity: 0.2;
    }
    .wood-light {
      fill: #37474f;
    }
    .wood-dark {
      fill: #263238;
    }
    .glass {
      fill: rgba(0, 145, 234, 0.5);
      stroke: #263238;
      stroke-width: 7;
    }
    .glass2 {
      fill: rgba(255, 255, 255, 0.5);
      stroke: #263238;
      stroke-width: 7;
    }
    .glass3 {
      fill: #90caf9;
      opacity: 0.8;
    }
    .stud {
      fill: #263238;
      stroke-width: 3;
      stroke: #37474f;
    }
    .knob {
      fill: #ffd740;
      stroke: #ffd740;
      opacity: 0.7;
      stroke-width: 5;
    }
  </style>
  
  <g>
    <path id="base" class="fill-white stroke-dark stroke-dark" d="M55,185 l280,0 0,300 -280,0Z" />

    <!-- doorway -->
    <path id="column" class="wood-light stroke-dark" d="M55,185 l20,0 0,532 -20,-2Z" />
    <path id="column" class="wood-light stroke-dark" d="M315,185 l20,0 0,530 -20,2Z" />
    <path id="panel" class="wood-dark stroke-dark" d="M75,545 l60,0 0,172 -60,0Z" />
    <path id="panel" class="wood-dark stroke-dark" d="M255,545 l60,0 0,172 -60,0Z" />

    <!-- first floor -->
    <path id="decor-mid" class="stud" d="M77,218 l10,0 0,10 -10,0Z" />
    <path id="decor-mid" class="stud" d="M118,218 l10,0 0,10 -10,0Z" />
    <path id="decor-mid" class="stud" d="M77,298 l10,0 0,34 -10,0Z" />
    <path id="decor-mid" class="stud" d="M118,298 l10,0 0,34 -10,0Z" />
    <path id="decor-mid" class="stud" d="M118,358 l10,0 0,34 -10,0Z" />
    <path id="decor-mid" class="stud" d="M77,358 l10,0 0,34 -10,0Z" />
    <path id="decor-mid" class="stud" d="M77,462 l10,0 0,10 -10,0Z" />
    <path id="decor-mid" class="stud" d="M118,462 l10,0 0,10 -10,0Z" />
    <path
      id="decor-mid"
      class="wood-dark stroke-dark"
      d="M102,215 a28,28 1 0,1 28,28 l0,-33 -55,0 0,33 a28,28 1 0,1 28,-28"
    />
    <path
      id="decor-mid"
      class="wood-dark stroke-dark"
      d="M102,320 a28,28 1 0,1 28,28 l0,-66 a-28,28 0 0,1 -28,28 a-28,-28 0 0,1 -27,-28 l0,66 a-28,-28 1 0,1 28,-28"
    />
    <path
      id="decor-mid"
      class="wood-dark stroke-dark"
      d="M102,380 a28,28 1 0,1 28,28 l0,-66 a-28,28 0 0,1 -28,28 a-28,-28 0 0,1 -27,-28 l0,66 a-28,-28 1 0,1 28,-28"
    />
    <path
      id="decor-mid"
      class="wood-dark stroke-dark"
      d="M103,475 a28,28 1 0,1 -28,-28 l0,33 55,0 0,-33 a28,28 1 0,1 -28,28"
    />

    <path id="decor-mid" class="stud" d="M262,218 l10,0 0,10 -10,0Z" />
    <path id="decor-mid" class="stud" d="M303,218 l10,0 0,10 -10,0Z" />
    <path id="decor-mid" class="stud" d="M262,298 l10,0 0,34 -10,0Z" />
    <path id="decor-mid" class="stud" d="M303,298 l10,0 0,34 -10,0Z" />
    <path id="decor-mid" class="stud" d="M262,358 l10,0 0,34 -10,0Z" />
    <path id="decor-mid" class="stud" d="M303,358 l10,0 0,34 -10,0Z" />
    <path id="decor-mid" class="stud" d="M262,462 l10,0 0,10 -10,0Z" />
    <path id="decor-mid" class="stud" d="M303,462 l10,0 0,10 -10,0Z" />
    <path
      id="decor-mid"
      class="wood-dark stroke-dark"
      d="M287,215 a28,28 1 0,1 28,28 l0,-33 -55,0 0,33 a28,28 1 0,1 28,-28"
    />
    <path
      id="decor-mid"
      class="wood-dark stroke-dark"
      d="M287,320 a28,28 1 0,1 28,28 l0,-66 a-28,28 0 0,1 -28,28 a-28,-28 0 0,1 -27,-28 l0,66 a-28,-28 1 0,1 28,-28"
    />
    <path
      id="decor-mid"
      class="wood-dark stroke-dark"
      d="M287,380 a28,28 1 0,1 28,28 l0,-66 a-28,28 0 0,1 -28,28 a-28,-28 0 0,1 -27,-28 l0,66 a-28,-28 1 0,1 28,-28"
    />
    <path
      id="decor-mid"
      class="wood-dark stroke-dark"
      d="M288,475 a28,28 1 0,1 -28,-28 l0,33 55,0 0,-33 a28,28 1 0,1 -28,28"
    />

    <path
      id="decor-mid"
      class="glass2"
      d="M140,345 a24,24 1 0,1 24,24 a-24,-24 0 0,1 24,-24 a-24,-24 0 0,1 -24,-24 a-24,24 0 0,1 -24,24Z"
    />
    <path
      id="decor-mid"
      class="glass2"
      d="M200,345 a24,24 1 0,1 24,24 a-24,-24 0 0,1 24,-24 a-24,-24 0 0,1 -24,-24 a-24,24 0 0,1 -24,24Z"
    />
    <path id="column" class="wood-light stroke-dark" d="M190,305 l10,0 0,68 -10,0Z" />
    <path id="beam" class="wood-light stroke-dark" d="M75,310 l240,0 0,10 -240,0Z" />
    <path id="beam" class="wood-light stroke-dark" d="M75,370 l240,0 0,10 -240,0Z" />
    <path id="beam" class="wood-light stroke-dark" d="M75,595 l240,0 0,10 -240,0Z" />
    <path id="panel" class="wood-dark stroke-dark" d="M135,545 l60,0 0,172 -60,0Z" />
    <path id="panel" class="wood-dark stroke-dark" d="M195,545 l60,0 0,172 -60,0Z" />
    <path id="column" class="wood-light stroke-dark" d="M130,185 l10,0 0,532 -10,0Z" />
    <path id="column" class="wood-light stroke-dark" d="M250,185 l10,0 0,532 -10,0Z" />

    <path
      id="windowpane-mid"
      class="glass"
      d="M145,221 l-6,0 112,0 -6,0 0,84 7,0 -114,0 7,0Z"
    />
    <path id="windowframe-mid" class="shade" d="M145,305 l0,-84 100,0" />
    <path
      id="windowframe-mid"
      class="glass2"
      d="M145,221 l25,0 0,84 25,0 0,-84 25,0 0,84 25,0 0,-55 -100,0 0,55 100,0"
    />
    <path
      id="windowpane-mid"
      class="glass"
      d="M145,385 l-6,0 112,0 -6,0 0,84 7,0 -114,0 7,0Z"
    />
    <path
      id="windowframe-mid"
      class="glass2"
      d="M145,469 l0,-84 25,0 0,84 25,0 0,-84 25,0 0,84 25,0 0,-55 -100,0 0,-25 100,0 "
    />

    <!-- doorway -->
    <path id="windowpane-lower" class="glass3 stroke-white" d="M150,555 l35,0 0,20 -35,0Z" />
    <path id="windowpane-lower" class="glass3 stroke-white" d="M205,555 l35,0 0,20 -35,0Z" />
    <path
      id="windowpane-lower"
      class="shade"
      d="M245,585 l0,-45 -100,0 0,115Z"
    />
    <path id="windowpane-lower" class="glass3 stroke-white" d="M150,585 l35,0 0,70 -35,0Z" />
    <path id="windowpane-lower" class="glass3 stroke-white" d="M205,585 l35,0 0,70 -35,0Z" />
    <path id="windowpane-lower" class="shade" d="M245,655 l0,-70 -100,0" />
    <circle class="knob" cx="183" cy="670" r="2" />
    <circle class="knob" cx="207" cy="670" r="2" />

    <path id="windowpane-lower" class="glass3 stroke-white" d="M85,555 l35,0 0,30 -35,0Z" />
    <path id="windowpane-lower" class="glass3 stroke-white" d="M85,615 l35,0 0,30 -35,0Z" />
    <path id="windowpane-lower" class="glass3 stroke-white" d="M270,555 l35,0 0,30 -35,0Z" />
    <path id="windowpane-lower" class="glass3 stroke-white" d="M270,615 l35,0 0,30 -35,0Z" />

    <path id="panel-lower" class="wood-dark stroke-dark" d="M85,655 l35,0 0,50 -35,0Z" />
    <path id="panel-lower" class="shade" d="M120,555 l-40,0 0,153Z" />
    <path id="panel-lower" class="shade" d="M85,615 l40,0 0,95Z" />
    <path id="panel-lower" class="shade" d="M120,655 l-40,0 0,53Z" />
    <path id="panel-lower" class="wood-dark stroke-dark" d="M270,655 l35,0 0,50 -35,0Z" />
    <path id="panel-lower" class="shade" d="M270,555 l40,0 0,153 Z" />
    <path id="panel-lower" class="shade" d="M305,615 l-40,0 0,95Z" />
    <path id="panel-lower" class="shade" d="M270,655 l40,0 0,53Z" />

    <!-- flower balcony -->
    <circle id="flower" class="flower-light" cx="229" cy="449" r="3" />
    <path
      id="leaves3"
      class="leaves-dark"
      d="M110,460 c0,-15 30,5 25,15 c-10,0 -20,-25 10,-35 c-10,25 -30,28 -35,20Z"
    />
    <path
      id="leaves2"
      class="leaves-light"
      d="M28,455 c10,5 12,35 60,0 c-5,-5 -49,-10 -30,52 c30,-40 -20,-62 -30,-52Z"
    />
    <path
      id="leaves2"
      class="leaves-dark"
      d="M135,448 c10,5 12,35 60,0 c-5,-5 -49,-10 -30,52 c30,-40 -20,-62 -30,-52Z"
    />
    <path
      id="leaves2"
      class="leaves-light"
      d="M205,448 c10,5 12,35 60,0 c-5,-5 -49,-10 -30,52 c30,-40 -20,-62 -30,-52Z"
    />
    <path
      id="leaves1"
      class="leaves-light"
      d="M242,440 c20,10 20,35 0,40 c5,-20 20,-25 35,-20 c -10,10 -30,8 -35,-20Z"
    />
    <path
      id="leaves1"
      class="leaves-light"
      d="M290,440 c20,10 20,35 0,40 c5,-20 20,-25 35,-20 c -10,10 -30,8 -35,-20Z"
    />
    <path
      id="leaves2"
      class="leaves-light"
      d="M312,454 c10,5 12,35 60,0 c-5,-5 -49,-10 -30,52 c30,-40 -20,-62 -30,-52Z"
    />
    <path
      id="leaves5"
      class="leaves-dark"
      d="M205,449 c20,10 28,40 20,45 c-15,-20 5,-40 10,-30 c-10,10 -30,8 -30,-10Z"
    />
    <path
      id="leaves5"
      class="leaves-light"
      d="M100,450 c20,10 28,40 20,45 c-15,-20 5,-40 10,-30 c-10,10 -30,8 -30,-10Z"
    />
    <circle id="flower" class="flower-med" cx="137" cy="445" r="3" />
    <circle id="flower" class="flower-light" cx="220" cy="457" r="3" />
    <circle id="flower" class="flower-dark" cx="266" cy="443" r="3" />
    <circle id="flower" class="flower-med" cx="279" cy="448" r="4" />
    <circle id="flower" class="flower-light" cx="310" cy="466" r="4" />

    <!-- doorway -->
    <path
      id="beam-curved"
      class="wood-light stroke-dark"
      d="M75,545 l240,0 0,30 c0,0 -120,-45 -240,0Z"
    />
    <path
      id="beam-curved"
      class="wood-light stroke-dark"
      d="M140,585 l110,0 0,20 c0,0 -55,-30 -110,0Z"
    />
    <path
      id="sign"
      class="wood-light stroke-dark"
      d="M37,485 l316,0 c 0,0 -15,25 -15,50 l-286,0 c 0,0 0,-25 -15,-50 l1,-10 315,0 1,10"
    />
    <path id="beam" class="wood-light stroke-dark" d="M52,535 l286,0 1,10 -288,0Z" />

    <path
      id="fascia"
      class="wood-dark stroke-dark"
      d="M37,195 l316,0 c0,0 -15,15 -15,20 l-286,0 c0,-5 -15,-20 -15,-20 l-1,-10 318,0 -1,10"
    />
    <path
      id="roof"
      class="wood-light stroke-dark"
      d="M75,5 l240,0 c 0,0 0,90 38,180 c 0,0 -158,2 -316,0 c38,-90 38,-180 38,-180Z"
    />
    <path
      id="windowpane-upper"
      class="fill-white stroke-dark stroke-dark"
      d="M165,130 l60,0 0,-80 -60,0Z"
    />
    <path
      id="windowpane-upper"
      class="glass"
      d="M165,50 l-6,0 72,0 -6,0 0,80 7,0 -74,0 7,0Z"
    />
    <path id="windowpane-upper" class="shade" d="M165,130 l60,0 0,-80" />
    <path id="windowframe-upper" class="glass2" d="M165,50 l30,0 0,80 30,0" />

    <!-- flower baskets -->
    <circle id="leaves" class="leaves-light" cx="85" cy="600" r="22" />
    <path class="chain stroke-white" d="M65,600 l20,-50 20,50" />
    <circle id="flower" class="flower-dark" cx="68" cy="601" r="4.5" />
    <path
      id="leaves4"
      class="leaves-light"
      d="M63,588 c20,10 20,35 8,35 c0,-30 20,-25 25,-20 c -10,10 -30,8 -33,-15Z"
    />
    <circle id="flower" class="flower-med" cx="72" cy="586" r="5" />
    <circle id="flower" class="flower-med" cx="85" cy="598" r="4" />
    <path
      id="leaves5"
      class="leaves-dark"
      d="M74,575 c20,10 28,40 20,45 c-15,-20 5,-40 10,-30 c-10,10 -30,8 -30,-10Z"
    />
    <circle id="flower" class="flower-light" cx="72" cy="592" r="3.5" />
    <circle id="flower" class="flower-dark" cx="89" cy="582" r="5" />
    <circle id="flower" class="flower-med" cx="94" cy="588" r="3" />
    <circle id="flower" class="flower-light" cx="102" cy="600" r="5" />

    <circle id="leaves" class="leaves-light" cx="305" cy="600" r="22" />
    <path class="chain stroke-white" d="M285,600 l20,-50 20,50" />
    <circle id="flower" class="flower-dark" cx="307" cy="582" r="5" />
    <circle id="flower" class="flower-med" cx="318" cy="585" r="3" />
    <path
      id="leaves4"
      class="leaves-dark"
      d="M297,585 c20,10 20,35 8,40 c0,-30 20,-25 25,-20 c -10,10 -30,8 -33,-20Z"
    />
    <circle id="flower" class="flower-light" cx="300" cy="593" r="3.5" />
    <path
      id="leaves3"
      class="leaves-light"
      d="M280,607 c0,-15 30,5 25,15 c-10,0 -20,-25 10,-35 c-10,25 -30,28 -35,20Z"
    />
    <circle id="flower" class="flower-light" cx="322" cy="597" r="5" />
    <circle id="flower" class="flower-dark" cx="290" cy="586" r="3" />
    <circle id="flower" class="flower-med" cx="312" cy="606" r="3" />
    <circle id="flower" class="flower-med" cx="285" cy="598" r="4" />

    <!-- flower balcony -->
    <path
      id="leaves1"
      class="leaves-light"
      d="M67,440 c20,10 20,35 0,40 c5,-20 20,-25 35,-20 c -10,10 -30,8 -35,-20Z"
    />
    <path
      id="leaves5"
      class="leaves-dark"
      d="M84,440 c20,10 28,40 20,45 c-15,-20 5,-40 10,-30 c-10,10 -30,8 -30,-10Z"
    />
    <path
      id="leaves4"
      class="leaves-light"
      d="M132,445 c20,10 20,35 8,40 c0,-30 20,-25 25,-20 c -10,10 -30,8 -33,-20Z"
    />
    <path
      id="leaves4"
      class="leaves-dark"
      d="M162,440 c20,10 20,35 8,35 c0,-30 20,-25 25,-20 c -10,10 -30,8 -33,-15Z"
    />
    <path
      id="leaves3"
      class="leaves-light"
      d="M180,465 c0,-15 30,5 25,15 c-10,0 -20,-25 10,-35 c-10,25 -30,28 -35,20Z"
    />
    <path
      id="leaves5"
      class="leaves-dark"
      d="M255,440 c20,10 28,40 20,45 c-15,-20 5,-40 10,-30 c-10,10 -30,8 -30,-10Z"
    />
    <path
      id="leaves3"
      class="leaves-light"
      d="M275,465 c0,-15 30,5 25,15 c-10,0 -20,-25 10,-35 c-10,25 -30,28 -35,20Z"
    />
    <path
      id="leaves4"
      class="leaves-dark"
      d="M310,450 c20,10 20,35 8,35 c0,-30 20,-25 25,-20 c -10,10 -30,8 -33,-15Z"
    />
    <circle id="flower" class="flower-dark" cx="50" cy="452" r="5" />
    <circle id="flower" class="flower-med" cx="55" cy="465" r="3" />
    <circle id="flower" class="flower-light" cx="63" cy="454" r="3" />
    <circle id="flower" class="flower-med" cx="69" cy="457" r="5" />
    <circle id="flower" class="flower-light" cx="74" cy="445" r="3" />
    <circle id="flower" class="flower-dark" cx="81" cy="467" r="4" />
    <circle id="flower" class="flower-dark" cx="90" cy="452" r="3.5" />
    <circle id="flower" class="flower-light" cx="100" cy="460" r="5" />
    <circle id="flower" class="flower-dark" cx="120" cy="451" r="4.5" />
    <circle id="flower" class="flower-light" cx="130" cy="462" r="4" />
    <circle id="flower" class="flower-dark" cx="146" cy="466" r="3" />
    <circle id="flower" class="flower-light" cx="151" cy="454" r="4.5" />
    <circle id="flower" class="flower-light" cx="157" cy="442" r="3.5" />
    <circle id="flower" class="flower-med" cx="164" cy="450" r="3.5" />
    <circle id="flower" class="flower-light" cx="171" cy="465" r="3" />
    <circle id="flower" class="flower-med" cx="179" cy="445" r="4" />
    <circle id="flower" class="flower-dark" cx="190" cy="458" r="3.5" />
    <circle id="flower" class="flower-med" cx="204" cy="453" r="3.5" />
    <circle id="flower" class="flower-light" cx="208" cy="468" r="3" />
    <circle id="flower" class="flower-dark" cx="220" cy="441" r="4.5" />
    <circle id="flower" class="flower-med" cx="238" cy="442" r="4" />
    <circle id="flower" class="flower-dark" cx="240" cy="463" r="3.5" />
    <circle id="flower" class="flower-light" cx="248" cy="450" r="5" />
    <circle id="flower" class="flower-light" cx="258" cy="465" r="4.5" />
    <circle id="flower" class="flower-light" cx="270" cy="456" r="3" />
    <circle id="flower" class="flower-dark" cx="277" cy="465" r="3.5" />
    <circle id="flower" class="flower-dark" cx="290" cy="452" r="3.5" />
    <circle id="flower" class="flower-med" cx="300" cy="460" r="5" />
    <circle id="flower" class="flower-med" cx="300" cy="442" r="3" />
    <circle id="flower" class="flower-light" cx="320" cy="451" r="4.5" />
    <circle id="flower" class="flower-dark" cx="330" cy="459" r="4" />
    <circle id="flower" class="flower-med" cx="343" cy="452" r="5" />
    <circle id="flower" class="flower-light" cx="347" cy="463" r="4" />
  </g>
</svg>