<svg version="1.1" xmlns="http://www.w3.org/2000/svg" xmlns:xlink="http://www.w3.org/1999/xlink" 
	xml:space="preserve" id="lamp" viewBox="0 0 200 325">
  <title>streetlamp</title>
 
  <style>
    .stroke-dark {
      fill: none;
      stroke: #607d8b;
      stroke-width: 2;
    }
    .stroke-white {
      fill: none;
      stroke: #fff;
      stroke-width: 5;
    }
    .fill-white {
      fill: #fff;
    }
    .fill-black {
      fill: #000;
    }
    .fill-yellow {
      fill: #ffff8d;
    }
    .opacity-l {
      opacity: 0.7;
    }

    .flame {
      fill: #ffab00;
      stroke: #ffd600;
    }
    .light {
      opacity: 0.3;
      animation: pulse 20s ease-in-out infinite;
      animation-timing-function: linear;
      transform-origin: 100px 70px;
    }

    @keyframes pulse {
      0% {
        opacity: 0.1;
        transform: scale(1);
      }
      50% {
        opacity: 0.2;
        transform: scale(0.4);
      }
      100% {
        opacity: 0.1;
        transform: scale(1);
      }
    }
  </style>

  <g>
    <circle id="light fill-yellow" class="light fill-yellow" cx="100" cy="70" r="70" />
    <circle id="light fill-yellow" class="light fill-yellow" cx="100" cy="70" r="50" />

    <path id="mast" class="stroke-dark fill-black" d="M70,110 l60,0 l0,4 l-60,0Z" />
    <circle id="mast" class="stroke-dark fill-black" cx="70" cy="112" r="3" />
    <circle id="mast" class="stroke-dark fill-black" cx="130" cy="112" r="3" />
    <circle id="mast" class="stroke-dark fill-black" cx="95" cy="112" r="4" />
    <circle id="mast" class="stroke-dark fill-black" cx="105" cy="112" r="4" />

    <path id="post" class="stroke-dark fill-black" d="M97,98 l6,0 l.5,164 l-7,0Z" />
    <circle id="mast" class="stroke-dark fill-black" cx="100" cy="112" r="4.5" />
    <path id="base" class="stroke-dark fill-black" d="M93,290 l14,0 l0,30 c0,0 -7,1 -14,0Z" />
    <path
      id="base-post"
      class="stroke-dark fill-black"
      d="M95,260 l10,0 c-4,10 4,20 0,30 c 0,0 -5,2 -10,0 c-4,-10 4,-20 0,-30Z"
    />

    <path id="lantern-glass" class="stroke-dark fill-yellow" d="M84,51 l32,0 -8,40 -16,0Z" />
    <path
      id="lantern-top"
      class="stroke-dark fill-black"
      d="M100,20 c5,40 30,30 25,30 c0,0 -25,5 -50,0 c-10,0 20,10 25,-30Z"
    />
    <path
      id="lantern-finial"
      class="stroke-dark fill-black"
      d="M100,10 c0,0 4,6 0,8 c0,0 -4,-2 0,-8Z"
    />
    <circle id="lantern-top" class="stroke-dark fill-black" cx="100" cy="23" r="4" />
    <circle id="light fill-yellow" class="opacity-l fill-white" cx="100" cy="74" r="10" />
    <path
      id="light fill-yellow"
      class="flame opacity-l"
      d="M100,70 c0,0 6,8 0,12 c0,0 -6,-4 0,-12Z"
    />
    <path
      id="lantern-cradle"
      class="stroke-dark"
      d="M92,86 c2,1 5,-5 0,-9 c-8,-1 -10,8 -4,12 c-1,0 10,4 9,7 c-2,6 -6,3 -6,0"
    />
    <path
      id="lantern-cradle"
      class="stroke-dark"
      d="M92,86 c2,1 5,-5 0,-9 c-8,-1 -10,8 -4,12 c-1,0 10,4 9,7 c-2,6 -6,3 -6,0"
      transform="rotate(180 100,0) scale(1,-1)"
    />
  </g>
</svg>