<svg version="1.1" xmlns="http://www.w3.org/2000/svg" xmlns:xlink="http://www.w3.org/1999/xlink" 
	xml:space="preserve" id="mouse-paddington" viewBox="0 0 300 320">
  <title>paddington bear mouse</title>

    <style>
      .stroke-dark {
        fill: none;
        stroke: #607d8b;
        stroke-width: 5;
        stroke-linecap: round;
      }
      .stroke-dark-thin {
        fill: none;
        stroke: #607d8b;
        stroke-width: 1;
      }
      .stroke-white-thin {
        fill: none;
        stroke: #fff;
        stroke-width: 1;
      }
      .fill-white {
        fill: #fff;
      }
      .fill-dark {
        fill: #546e7a;
      }
      .fill-innerear {
        fill: #f8bbd0;
        opacity: 0.8;
      }
      .fill-lyellow {
        fill: #fffde7;
      }

      .mouse-fur {
        fill: #90a4ae;
        stroke: #607d8b;
        stroke-width: 5;
      }

      .mouse-cheeks {
        fill: #ff80ab;
        opacity: 0.8;
      }
      .mouse-hat {
        fill: #ff5252;
        stroke: #607d8b;
        stroke-width: 5;
      }
      .mouse-coat {
        fill: #00b0ff;
        stroke: #607d8b;
        stroke-width: 5;
      }
    </style>

    <g transform="translate(0,-20)">
       <!-- tail --> 
      <path
        class="stroke-dark"
        d="M82,280 c-10,13 -20,15 -28,15 a20,20 0 0 1 -20,-20 a16,16 0 0 1 16,-16 a12,12 0 0 1 12,12 a10,10 0 0 1 -10,10 a8,8 0 0 1 -8,-8 a6,6 0 0 1 4,-6"
      />
       <!-- body --> 
      <path
        class="mouse-fur"
        d="M80,115 a115,130 0 0 1 140,0 a32,32 0 1 1 26,52 a115,110 0 0 1 -34,118 a20,20 0 0 1 -34,10 a115,120 0 0 1 -56,0 a20,20 0 0 1 -34,-10 a115,110 0 0 1 -34,-118 a32,32 0 1 1 26,-52Z"
      />
       <!-- ears --> 
      <path class="fill-innerear" d="M72,130 a18,18 0 1 0 -12,22" />
      <path class="fill-innerear" d="M228,130 a18,18 0 1 1 12,22" />
       <!-- cheeks --> 
      <ellipse
        class="mouse-cheeks"
        cx="105"
        cy="165"
        rx="26"
        ry="23"
        transform="rotate(-22 150 200)"
      />
      <ellipse
        class="mouse-cheeks"
        cx="195"
        cy="165"
        rx="26"
        ry="23"
        transform="rotate(22 150 200)"
      />
       <!-- eyes --> 
      <ellipse class="fill-dark" cx="110" cy="165" rx="16" ry="20" />
      <ellipse class="fill-dark" cx="190" cy="165" rx="16" ry="20" />
       <!-- eye highlights --> 
      <circle class="fill-white" cx="111" cy="151" r="2.5" />
      <circle class="fill-white" cx="104" cy="155" r="2" />
      <circle class="fill-white" cx="110" cy="158" r="1.5" />
      <line class="stroke-white-thin" x1="119" y1="145" x2="109" y2="150" />
      <path
        class="fill-white"
        d="M100,185 a 4,6 45 1,0 8,0 a 4,6 -45 1,0 -8,0"
        transform="rotate(-40 100 185)"
      />
      <path
        class="fill-white"
        d="M200,185 a 4,6 45 1,0 8,0 a 4,6 -45 1,0 -8,0"
        transform="rotate(-130 200 185)"
      />
      <circle class="fill-white" cx="191" cy="151" r="2.5" />
      <circle class="fill-white" cx="184" cy="155" r="2" />
      <circle class="fill-white" cx="190" cy="158" r="1.5" />
      <line class="stroke-white-thin" x1="199" y1="145" x2="189" y2="150" />
       <!-- whiskers --> 
      <path class="stroke-white-thin" d="M150,170 q-40,-2 -92,5" />
      <path class="stroke-white-thin" d="M150,170 q-40,0 -100,15" />
      <path class="stroke-white-thin" d="M150,170 q40,-2 92,5" />
      <path class="stroke-white-thin" d="M150,170 q40,0 100,15" />
       <!-- nose --> 
      <path class="stroke-dark-thin" d="M130,167 q20-8 40,0 0" />
      <circle class="fill-dark" cx="150" cy="168" r="7" />
       <!-- hat --> 
      <path
        class="mouse-hat"
        d="M98,100 l100,-5 0-8 -20,1 1,-25 -60-2 1,30 -23,-1Z"
      />
       <!-- jacket --> 
      <path
        class="mouse-coat"
        d="M47,210 l88,10 5,5 -1,50 q-20,3 -70,0 q-30,-5 -21-63Z"
      />
      <path
        class="mouse-coat"
        d="M253,210 l-88,10 -5,5 1,50 q20,3 70,0 q30,-5 21-63Z"
      />
       <!-- label --> 
      <path class="stroke-white-thin" d="M169,228 q5,-10 12,-10" />
      <path
        class="fill-lyellow"
        d="M172,223 l14,9 0,38 -28,0 0-38Z"
        transform="rotate(30 172 223)"
      />
      <circle class="fill-dark" cx="169" cy="228" r="2.5" />
      <path class="stroke-white-thin" d="M169,228 q5,0 10,-12" />
       <!-- paws --> 
      <path class="mouse-fur" d="M88,225 a18,18 0 1 1 -15,22Z" />
      <path class="mouse-fur" d="M212,225 a18,18 0 1 0 15,22Z" />
    </g>
</svg>