<svg version="1.1" xmlns="http://www.w3.org/2000/svg" xmlns:xlink="http://www.w3.org/1999/xlink" 
	xml:space="preserve" viewBox="0 0 200 200" id="avatar-dewi">
  <title>dewi avatar</title>

  <style>
    .fill-pink {
      fill: #ff7088;
      opacity: 0.6;
    }
    .stroke-black {
      fill: none;
      stroke: #000;
      stroke-width: 3;
    }
    .nose {
      fill: #000;
      opacity: 0.6;
    }
    .freckle {
      fill: #ebc68e;
    }
    .cheek {
      fill: url(#cheek);
    }
    .hair {
      fill: #263238;
      stroke: #263238;
      stroke-width: 3;
      stroke-linejoin: round;
    }
    .skin {
      fill: #ffc670;
      stroke: none;
    }
    .shadow {
      fill: #000;
      opacity:0.03;
    }
  </style>

  <defs>
    <radialGradient id="cheek" cx="50%" cy="50%" r="50%" fx="50%" fy="50%">
      <stop
        offset="0%"
          stop-color="hsla(350, 100%, 82%,.2)"
          stop-opacity='1'
      />
      <stop
        offset="100%"
        stop-color="hsl(36, 100%, 72%)"
         stopOpacity='1'
      />
    </radialGradient>
  </defs>

  <g transform="translate(100,105) scale(1)">
    <path
      class="hair"
      d="M-70,60 l0-70 a70,70 0 0 1 140,0 l0,70 q-50,-10 -70-22 q-20,10 -70,22Z"
    />
    <path
      class="skin"
      d="M-30-45 a50,60 0 0 1 60,0 a60,60 0 0 1 15,50 a7,7 0 1 1 0,5 q0,20 -30,33 q-15,8 -30,0 q-30,-13 -30-33 a7,7 0 1 1 0,-5 a60,60 0 0 1 15,-50Z"
    />
    <path class="stroke-black" d="M-14,5 q-8,-7 -18,-3 q-2-1 -3-2" />
    <path class="stroke-black" d="M-29,1 l-3-3" />
    <path class="stroke-black" d="M14,5 q8,-7 18,-3 q2-1 3-2" />
    <path class="stroke-black" d="M29,1 l3-3" />
    <circle class="nose" cx="-3" cy="15" r="1.25" />
    <circle class="nose" cx="3" cy="15" r="1.25" />
    <ellipse
      class="cheek"
      cx="-28"
      cy="14"
      rx="12"
      ry="10"
      transform="rotate(15,-28,14)"
    />
    <ellipse
      class="cheek"
      cx="28"
      cy="14"
      rx="12"
      ry="10"
      transform="rotate(-15,28,14)"
    />
    <circle class="freckle" cx="-21" cy="11" r="1" />
    <circle class="freckle" cx="-30" cy="13" r="1" />
    <circle class="freckle" cx="-27" cy="10" r="1" />
    <circle class="freckle" cx="-25" cy="14" r="1" />
    <circle class="freckle" cx="21" cy="11" r="1" />
    <circle class="freckle" cx="25" cy="14" r="1" />
    <circle class="freckle" cx="27" cy="10" r="1" />
    <circle class="freckle" cx="30" cy="13" r="1" />
    <circle class="freckle" cx="33" cy="8" r="1" />
    <path
      class="fill-pink"
      d="M-6,23 a7,6 0 1 0 12,0 q-5,-2 -6,0 q-1,-2 -6,0Z"
    />
    <path
      class="shadow"
      d="M12,-62 a45,45 0 0 0 33,70 a60,60 0 0 0 -33,-70"
    />
    <path
      class="shadow"
      d="M25,-65 a70,70 0 0 1 -50,65 q0,30 -5,40 l-29,0 l0-50 a70,70 0 0 1 70,-60 "
    />
    <path
      class="hair"
      d="M14,-70 a45,45 0 0 0 33,70 a60,60 0 0 0 -33,-70"
    />

    <path
      class="hair"
      d="M20,-70 a70,70 0 0 1 -50,65 q0,30 -5,40 l-29,0 l0-50 a70,70 0 0 1 70,-60 "
    />
    <path class="shadow" d="M0,-105 a100,100 0 0 0 0,200" />
  </g>
</svg>