<svg version="1.1" xmlns="http://www.w3.org/2000/svg" xmlns:xlink="http://www.w3.org/1999/xlink" 
	xml:space="preserve" viewBox="0 0 200 200" id="avatar-amit">
  <title>amit avatar</title>

  <style>
    .shadow {
      fill: #000;
      opacity:0.03;
    }
    .fill-pink {
      fill: hsla(350, 100%, 72%, 0.6);
    }
    .aa-skin {
      fill: peru;
      stroke: none;
    }
    .aa-glasses {
      fill: rgba(100, 255, 255, 0.1);
      stroke: springgreen;
      stroke-width: 3;
    }
    .stroke-pink {
      fill: none;
      stroke: hsl(350, 100%, 77%);
      stroke-width: 3;
    }
    .stroke-black {
      fill: none;
      stroke: black;
      stroke-width: 3;
    }
    .aa-hair {
      stroke: none;
      fill: hsl(25, 26%, 15%);
    }
  </style>

  <g transform="translate(100,115) scale(1)">
    <ellipse class="aa-hair" cx="-57" cy="4" rx="15" ry="14" />
    <circle class="aa-hair" cx="-50" cy="-28" r="25" />
    <circle class="aa-hair" cx="-25" cy="-57" r="30" />
    <circle class="aa-hair" cx="20" cy="-63" r="33" />
    <circle class="aa-hair" cx="50" cy="-28" r="25" />
    <ellipse class="aa-hair" cx="57" cy="4" rx="15" ry="14" />

    <circle class="aa-skin" cx="-54" cy="22" r="10" />
    <circle class="aa-skin" cx="54" cy="22" r="10" />
    <circle class="shadow" cx="-54" cy="22" r="10" />
    <circle class="shadow" cx="54" cy="22" r="10" />
    <rect
      class="aa-skin"
      x="-60"
      y="-62"
      width="120"
      height="127"
      rx="45"
      ry="50"
    />
    <ellipse
      class="fill-pink"
      cx="0"
      cy="56"
      rx="15"
      ry="10"
      transform="rotate(45,0,0)"
    />
    <ellipse
      class="fill-pink"
      cx="0"
      cy="56"
      rx="15"
      ry="10"
      transform="rotate(-45,0,0)"
    />

    <ellipse class="shadow" cx="-45" cy="-42" rx="18" ry="20" />
    <ellipse class="shadow" cx="-9" cy="-64" rx="30" ry="30" />
    <ellipse class="shadow" cx="30" cy="-56" rx="22" ry="20" />
    <ellipse class="shadow" cx="50" cy="-38" rx="18" ry="20" />

    <circle class="aa-hair" cx="-63" cy="2" r="7" />
    <ellipse class="aa-hair" cx="-60" cy="-15" rx="13" ry="13" />
    <ellipse class="aa-hair" cx="-50" cy="-45" rx="18" ry="20" />
    <ellipse class="aa-hair" cx="-12" cy="-70" rx="30" ry="30" />
    <ellipse class="aa-hair" cx="31" cy="-62" rx="22" ry="20" />
    <ellipse class="aa-hair" cx="55" cy="-40" rx="18" ry="20" />
    <ellipse class="aa-hair" cx="60" cy="-14" rx="13" ry="13" />
    <circle class="aa-hair" cx="63" cy="2" r="7" />

    <path class="stroke-black" d="M-20,15 a18,18 0 0 0 -28,1" />
    <path class="stroke-black" d="M20,15 a18,18 0 0 1 28,1" />

    <path
      class="aa-hair"
      d="M0,30 a30,32 0 0 1 45,23 a60,60 0 0 1 -90,0 a30,32 0 0 1 45,-23Z"
    />
    <ellipse class="aa-skin" cx="0" cy="44" rx="13" ry="12" />
    <path class="stroke-pink" d="M-8,39 a8,9 0 0 0 16,1 " />

    <circle class="aa-glasses" cx="-36" cy="11" r="22" />
    <circle class="aa-glasses" cx="36" cy="11" r="22" />
    <path class="aa-glasses" d="M-13,8 l26,0" />
    <path class="aa-glasses" d="M-58,9 l-5,0" />
    <path class="aa-glasses" d="M58,9 l5,0" />

    <path class="shadow" d="M0,-115 a100,100 0 0 0 0,200" />
  </g>
</svg>