<svg version="1.1" xmlns="http://www.w3.org/2000/svg" xmlns:xlink="http://www.w3.org/1999/xlink" 
	xml:space="preserve" viewBox="0 0 200 200" id="avatar-jimmy">
  <title>jimmy avatar</title>

  <style>
    .fill-white {
      fill: white;
    }
    .aj-skin {
      fill: hsl(28, 95%, 84%);
      stroke: none;
    }
    .aj-glasses {
      fill: rgba(0, 0, 255, 0.05);
      stroke: hsl(25, 76%, 15%);
      stroke-width: 3;
    }
    .aj-hair {
      stroke: none;
      fill: hsla(25, 36%, 15%, 0.9);
    }
    .stroke-opaque {
      fill: none;
      stroke: rgba(0, 0, 0, 0.3);
      stroke-width: 3;
    }
    .shadow {
      fill: #000;
      opacity:0.03;
    }
    .fill-pink {
      fill: hsla(350, 100%, 72%, 0.6);
    }
  </style>

  <g transform="translate(100,100) scale(1)">
    <path class="aj-hair" d="M-12,-60 l6,-18 3,8 4,-12 5,14 4,-11 5,19" />
    <circle class="aj-skin" cx="-54" cy="22" r="10" />
    <circle class="aj-skin" cx="54" cy="22" r="10" />
    <rect
      class="aj-skin"
      x="-60"
      y="-62"
      width="120"
      height="127"
      rx="45"
      ry="50"
    />
    <ellipse
      class="aj-hair"
      cx="-38"
      cy="13"
      rx="8"
      ry="11"
      transform="rotate(-5,-38,13)"
    />
    <ellipse
      class="aj-hair"
      cx="38"
      cy="13"
      rx="8"
      ry="11"
      transform="rotate(5,38,13)"
    />
    <circle class="fill-white" cx="-36" cy="8" r="2" />
    <circle class="fill-white" cx="-39" cy="12" r="1" />
    <circle class="fill-white" cx="41" cy="8" r="2" />
    <circle class="fill-white" cx="38" cy="12" r="1" />
    <path id="aj-nose" class="stroke-opaque" d="M-7,18 a8,8 0 0 1 14,0" />
    <circle class="aj-glasses" cx="-36" cy="11" r="22" />
    <circle class="aj-glasses" cx="36" cy="11" r="22" />
    <path class="aj-glasses" d="M-13,8 l26,0" />
    <path class="aj-glasses" d="M-58,9 l-5,0" />
    <path class="aj-glasses" d="M58,9 l5,0" />
    <path class="fill-pink" d="M-8,36 a8,12 0 0 0 16,1Z" />
    <path class="aj-hair" d="M-12,-60 l6,-18 3,8 4,-12 5,14 4,-11 5,19" />
    <path class="shadow" d="M0,-100 a100,100 0 0 0 0,200" />
  </g>
</svg>